<?xml version="1.0" encoding="UTF-8"?><svg id="Layer_1" xmlns="http://www.w3.org/2000/svg" viewBox="0 0 823.06 822.86"><path d="m411.47,558.15c-27.13,0-49.2-22.07-49.2-49.2s22.07-49.2,49.2-49.2,49.2,22.07,49.2,49.2-22.07,49.2-49.2,49.2Zm0-83.59c-18.97,0-34.39,15.43-34.39,34.39s15.43,34.39,34.39,34.39,34.39-15.43,34.39-34.39-15.43-34.39-34.39-34.39Z"/><path d="m140.47,233.54c-1.19,0-2.37-.3-3.42-.86-48.59-25.18-79.7-74.72-81.27-129.33-.11-2.72,1.2-5.24,3.43-6.66,1.19-.76,2.56-1.16,3.97-1.16,1.19,0,2.38.29,3.43.84,2.34,1.22,3.86,3.62,3.97,6.26,1.3,49.23,29.25,93.93,72.99,116.72.14.09.28.17.43.25,3,1.6,4.52,5.03,3.69,8.33-.83,3.3-3.78,5.6-7.18,5.6h-.04Z"/><path d="m136.49,822.86c-15.34-.01-29.49-8.36-36.91-21.8-7.43-13.43-6.98-29.86,1.18-42.86l71.05-113.42c1.25-1.99,1.33-4.5.21-6.57-36-66.58-42.55-145.83-17.99-217.42,24.56-71.59,78.39-130.12,147.69-160.57,1.74-.76,3.06-2.25,3.62-4.06.56-1.81.3-3.78-.71-5.39l-46.18-73.62c-1.07-1.71-2.88-2.83-4.89-3.03-.21-.02-.43-.03-.64-.03-1.79,0-3.51.74-4.75,2.05-58.54,62.11-62.53,120.74-62.58,122v-.32c-.19,3.94-3.44,7.02-7.38,7.02-.3,0-.61-.02-.91-.05-59.71-10.38-112.86-45.47-145.85-96.32C.08,156.62-8.29,93.49,8.45,35.25c.67-1.9,2.1-3.46,3.93-4.29.97-.44,1.99-.66,3.05-.66.99,0,1.96.2,2.88.58.26.11,22.53,9.15,59.73,9.15,43.71,0,88.34-12.03,132.64-35.76C215.85,1.5,221.65.03,227.48.03c12.22,0,23.43,6.15,29.99,16.46l136.54,217.9c1.2,1.91,3.29,3.06,5.53,3.06.09,0,.18,0,.27,0,1.58-.07,3.14-.17,4.71-.28,2.41-.16,4.69-.32,6.96-.32s4.55.15,6.96.32c1.56.11,3.13.21,4.71.28.09,0,.18,0,.27,0,2.24,0,4.34-1.15,5.53-3.06l91.62-146.19,44.94-71.75c6.53-10.29,17.75-16.45,29.99-16.45,5.84,0,11.67,1.48,16.84,4.27,44.55,23.86,89.16,35.95,132.64,35.95,37.26,0,59.55-9.27,59.76-9.37.84-.35,1.81-.55,2.8-.55,1.06,0,2.08.22,3.05.66,1.91.84,3.36,2.41,4.03,4.33,16.73,58.24,8.36,121.36-22.99,173.22-32.99,50.85-86.13,85.94-145.85,96.32-.3.03-.61.05-.92.05-3.94,0-7.18-3.09-7.38-7.02-.15-2.51-4.36-60.42-62.51-121.83-1.24-1.31-2.96-2.04-4.74-2.04-.21,0-.43.01-.65.03-2.01.2-3.81,1.32-4.89,3.03l-46.25,73.74c-1.01,1.61-1.27,3.57-.71,5.39.56,1.81,1.87,3.3,3.61,4.06,69.27,30.48,123.07,89.01,147.61,160.59,24.54,71.58,17.97,150.81-18.02,217.38-1.12,2.07-1.04,4.58.21,6.57l71.05,113.39c8.17,13.01,8.63,29.45,1.19,42.89-7.43,13.44-21.59,21.8-36.95,21.8-3.2,0-6.41-.37-9.54-1.08-10.89-2.44-20.49-9.27-26.37-18.73l-53.4-85.38c-1.01-1.61-2.67-2.7-4.54-2.99-.33-.05-.66-.08-.99-.08-1.54,0-3.05.55-4.24,1.56-49,41.83-111.46,64.86-175.88,64.86s-126.89-23.04-175.88-64.86c-1.19-1.02-2.7-1.56-4.24-1.56-.33,0-.66.03-.99.08-1.88.29-3.54,1.38-4.54,2.99l-53.4,85.37c-5.89,9.47-15.49,16.29-26.35,18.73-3.15.72-6.36,1.08-9.57,1.08Zm503.73-161.78c-2.13,0-4.13,1.04-5.36,2.79-8.19,11.75-17.38,22.94-27.32,33.27-2.08,2.16-2.42,5.45-.83,7.99l56.37,90.11c3.82,6.14,10.06,10.56,17.13,12.13,1.98.46,4.08.71,6.18.71,8.86,0,17.22-4.31,22.35-11.54,6.48-9.12,6.8-21.11.82-30.57l-63.81-101.84c-1.16-1.86-3.18-3.01-5.37-3.06-.05,0-.11,0-.16,0Zm-457.62-.03c-2.19.05-4.21,1.2-5.37,3.06l-63.85,101.9c-7.93,12.82-4.04,29.8,8.65,37.87,4.41,2.74,9.42,4.17,14.54,4.17,2.09,0,4.19-.24,6.23-.72,6.99-1.55,13.24-5.97,17.07-12.11l56.4-90.12c1.59-2.54,1.25-5.83-.83-7.99-9.93-10.32-19.13-21.52-27.32-33.27-1.22-1.75-3.22-2.79-5.36-2.79-.05,0-.11,0-.16,0Zm228.88-409.4c-141.88,0-257.3,115.43-257.3,257.3s115.43,257.3,257.3,257.3,257.3-115.43,257.3-257.3c-.16-141.72-115.59-257.14-257.29-257.3h0ZM595.41,14.85c-7.02,0-13.49,3.51-17.31,9.39l-52.48,83.78c-1.87,2.98-1.04,6.91,1.88,8.88,92.81,62.58,116.59,136.36,122.5,165.17.36,1.75,1.42,3.27,2.93,4.22,1.05.66,2.25,1,3.47,1,.54,0,1.08-.07,1.61-.2,49.81-12.67,92.74-43.34,120.88-86.34.15-.23.29-.47.41-.72,26.29-43.96,35.06-95.76,24.68-145.94-.36-1.75-1.42-3.27-2.93-4.21-1.05-.65-2.25-.99-3.46-.99-.54,0-1.08.07-1.61.2-10.8,2.75-28.46,6.02-51.23,6.02-45.76,0-92.69-12.7-139.49-37.75-2.98-1.63-6.4-2.51-9.85-2.51ZM25.41,48.89c-1.22,0-2.42.34-3.47,1-1.51.95-2.57,2.47-2.93,4.22-10.33,50.32-1.49,102.31,24.9,146.38.04.08.09.15.14.22,28.14,43,71.07,73.67,120.88,86.34.53.13,1.07.2,1.61.2,1.22,0,2.42-.34,3.47-1,1.51-.95,2.57-2.47,2.93-4.22,5.91-28.81,29.68-102.58,122.5-165.17,2.92-1.97,3.75-5.9,1.88-8.88l-52.43-83.69c-3.86-5.97-10.33-9.49-17.36-9.49-3.46,0-6.89.88-9.92,2.56-46.73,25.02-93.67,37.73-139.44,37.73-22.72,0-40.36-3.26-51.16-6-.53-.13-1.07-.2-1.6-.2Zm281.3,79.89c-1.29,0-2.57.38-3.65,1.12-11.8,7.97-23.23,16.75-33.97,26.09-2.42,2.11-2.95,5.67-1.25,8.4l52.15,83.17c1.22,1.94,3.33,3.06,5.53,3.06.66,0,1.33-.1,1.99-.31,13.68-4.38,27.82-7.69,42.03-9.83,2.18-.33,4.04-1.73,4.96-3.73.92-2,.77-4.33-.4-6.19l-61.86-98.71c-.94-1.5-2.45-2.55-4.18-2.92-.45-.1-.9-.14-1.35-.14Zm209.53-.06c-.45,0-.91.05-1.36.14-1.73.37-3.24,1.42-4.18,2.92l-61.86,98.72c-1.17,1.87-1.32,4.19-.4,6.19.92,2,2.78,3.4,4.96,3.73,14.21,2.14,28.35,5.45,42.03,9.84.66.21,1.33.31,1.99.31,2.2,0,4.31-1.12,5.53-3.06l52.24-83.21c1.71-2.73,1.18-6.3-1.25-8.41-10.77-9.34-22.24-18.11-34.07-26.06-1.09-.73-2.36-1.11-3.64-1.11Z"/><path d="m682.42,233.51c-3.42,0-6.38-2.3-7.2-5.6-.83-3.3.69-6.72,3.69-8.33,43.95-22.65,72.13-67.51,73.46-117.04.05-1.94.9-3.8,2.33-5.11,1.33-1.23,3.07-1.9,4.88-1.9.14,0,.27,0,.41.01,2.08.09,3.91.93,5.25,2.39,1.34,1.46,2.03,3.35,1.95,5.32-1.61,54.69-32.73,104.21-81.23,129.34-1.14.61-2.32.91-3.52.91h-.01Z"/><path d="m411.47,725.38c-40.1,0-79.28-11.21-113.31-32.41-.1-.06-.21-.12-.31-.18-.18-.12-.41-.27-.7-.43-31.11-19.28-56.96-46.37-74.78-78.34-17.85-32.03-27.29-68.35-27.29-105.02s9.44-72.99,27.29-105.02c17.82-31.97,43.67-59.06,74.77-78.34.29-.16.53-.32.7-.43.1-.06.21-.12.31-.18,34.03-21.2,73.21-32.41,113.31-32.41s79.28,11.21,113.31,32.41c.15.1.31.18.47.27.12.08.24.16.35.23,31.19,19.29,57.12,46.42,74.97,78.46,17.85,32.03,27.29,68.35,27.29,105.02s-9.44,72.99-27.29,105.02c-17.82,31.97-43.67,59.06-74.78,78.34-.29.16-.52.31-.69.43-.11.06-.21.12-.31.18-34.03,21.2-73.21,32.41-113.31,32.41Zm0-112.37c4.08,0,7.4,3.32,7.4,7.4v82.88c0,1.81.75,3.54,2.08,4.78,1.21,1.13,2.81,1.76,4.45,1.76.15,0,.3,0,.45-.02,30.28-2.11,60.17-11.29,86.42-26.54,2.01-1.17,3.25-3.32,3.25-5.65v-126.86c0-4.08,3.32-7.4,7.4-7.4s7.4,3.32,7.4,7.4v107.39c0,2.54,1.47,4.84,3.77,5.92.88.41,1.83.61,2.76.61,1.51,0,3-.52,4.19-1.52,45.75-38.31,71.99-94.51,72-154.19,0-59.68-26.25-115.87-72-154.19-1.2-1-2.69-1.52-4.19-1.52-.94,0-1.88.2-2.76.61-2.3,1.07-3.77,3.38-3.77,5.92v135.25c0,4.08-3.32,7.4-7.4,7.4s-7.4-3.32-7.4-7.4v-154.73c0-2.33-1.24-4.48-3.25-5.65-26.25-15.25-56.13-24.43-86.42-26.54-.15-.01-.3-.02-.45-.02-1.65,0-3.24.62-4.45,1.75-1.32,1.24-2.08,2.96-2.08,4.78v82.88c0,4.08-3.32,7.4-7.4,7.4s-7.4-3.32-7.4-7.4v-82.88c0-1.81-.75-3.54-2.08-4.78-1.21-1.13-2.81-1.75-4.45-1.75-.15,0-.3,0-.46.02-30.28,2.11-60.17,11.29-86.42,26.54-2.01,1.17-3.25,3.32-3.25,5.65v126.86c0,4.08-3.32,7.4-7.4,7.4s-7.4-3.32-7.4-7.4v-107.39c0-2.54-1.47-4.84-3.77-5.92-.88-.41-1.82-.61-2.76-.61-1.51,0-2.99.52-4.19,1.52-45.76,38.31-72,94.51-72,154.19s26.24,115.88,72,154.19c1.2,1,2.69,1.52,4.19,1.52.94,0,1.88-.2,2.76-.61,2.3-1.07,3.77-3.38,3.77-5.92v-65.59c0-4.08,3.32-7.4,7.4-7.4s7.4,3.32,7.4,7.4v85.07c0,2.33,1.24,4.48,3.25,5.65,26.25,15.25,56.13,24.43,86.42,26.54.15.01.3.02.46.02,1.65,0,3.24-.62,4.45-1.76,1.33-1.23,2.08-2.96,2.08-4.78v-82.88c0-4.08,3.32-7.4,7.4-7.4Z"/><path d="m300.02,544.22c-4.08,0-7.4-3.32-7.4-7.4v-13.93c0-4.08,3.32-7.4,7.4-7.4s7.4,3.32,7.4,7.4v13.93c0,4.08-3.32,7.4-7.4,7.4Z"/></svg>