<?xml version="1.0" encoding="UTF-8"?><svg id="Layer_1" xmlns="http://www.w3.org/2000/svg" viewBox="0 0 1952.94 1943.8"><path d="m1482.13,1638.95c-27.13,0-49.2-22.07-49.2-49.2s22.07-49.2,49.2-49.2,49.2,22.07,49.2,49.2-22.07,49.2-49.2,49.2Zm0-83.59c-18.97,0-34.39,15.43-34.39,34.39s15.43,34.39,34.39,34.39,34.39-15.43,34.39-34.39-15.43-34.39-34.39-34.39Z"/><path d="m1211.13,1314.34c-1.19,0-2.37-.3-3.42-.86-48.59-25.18-79.7-74.72-81.27-129.33-.11-2.72,1.2-5.24,3.43-6.66,1.19-.76,2.56-1.16,3.97-1.16,1.19,0,2.38.29,3.43.84,2.34,1.22,3.86,3.62,3.97,6.26,1.3,49.23,29.25,93.93,72.99,116.72.14.09.28.17.43.25,3,1.6,4.52,5.03,3.69,8.33-.83,3.3-3.78,5.6-7.18,5.6h-.04Z"/><path d="m1207.15,1903.66c-15.34-.01-29.49-8.36-36.91-21.8-7.43-13.43-6.98-29.86,1.18-42.86l71.05-113.42c1.25-1.99,1.33-4.5.21-6.57-36-66.58-42.55-145.83-17.99-217.42,24.56-71.59,78.39-130.12,147.69-160.57,1.74-.76,3.06-2.25,3.62-4.06.56-1.81.3-3.78-.71-5.39l-46.18-73.62c-1.07-1.71-2.88-2.83-4.89-3.03-.21-.02-.43-.03-.64-.03-1.79,0-3.51.74-4.75,2.05-58.54,62.11-62.53,120.74-62.58,122v-.32c-.19,3.94-3.44,7.02-7.38,7.02-.3,0-.61-.02-.91-.05-59.71-10.38-112.86-45.47-145.85-96.32-31.35-51.86-39.72-114.98-22.99-173.22.67-1.9,2.1-3.46,3.93-4.29.97-.44,1.99-.66,3.05-.66.99,0,1.96.2,2.88.58.26.11,22.53,9.15,59.73,9.15,43.71,0,88.34-12.03,132.64-35.76,5.17-2.78,10.97-4.25,16.8-4.25,12.22,0,23.43,6.15,29.99,16.46l136.54,217.9c1.2,1.91,3.29,3.06,5.53,3.06.09,0,.18,0,.27,0,1.58-.07,3.14-.17,4.71-.28,2.41-.16,4.69-.32,6.96-.32s4.55.15,6.96.32c1.56.11,3.13.21,4.71.28.09,0,.18,0,.27,0,2.24,0,4.34-1.15,5.53-3.06l91.62-146.19,44.94-71.75c6.53-10.29,17.75-16.45,29.99-16.45,5.84,0,11.67,1.48,16.84,4.27,44.55,23.86,89.16,35.95,132.64,35.95,37.26,0,59.55-9.27,59.76-9.37.84-.35,1.81-.55,2.8-.55,1.06,0,2.08.22,3.05.66,1.91.84,3.36,2.41,4.03,4.33,16.73,58.24,8.36,121.36-22.99,173.22-32.99,50.85-86.13,85.94-145.85,96.32-.3.03-.61.05-.92.05-3.94,0-7.18-3.09-7.38-7.02-.15-2.51-4.36-60.42-62.51-121.83-1.24-1.31-2.96-2.04-4.74-2.04-.21,0-.43.01-.65.03-2.01.2-3.81,1.32-4.89,3.03l-46.25,73.74c-1.01,1.61-1.27,3.57-.71,5.39.56,1.81,1.87,3.3,3.61,4.06,69.27,30.48,123.07,89.01,147.61,160.59,24.54,71.58,17.97,150.81-18.02,217.38-1.12,2.07-1.04,4.58.21,6.57l71.05,113.39c8.17,13.01,8.63,29.45,1.19,42.89-7.43,13.44-21.59,21.8-36.95,21.8-3.2,0-6.41-.37-9.54-1.08-10.89-2.44-20.49-9.27-26.37-18.73l-53.4-85.38c-1.01-1.61-2.67-2.7-4.54-2.99-.33-.05-.66-.08-.99-.08-1.54,0-3.05.55-4.24,1.56-49,41.83-111.46,64.86-175.88,64.86s-126.89-23.04-175.88-64.86c-1.19-1.02-2.7-1.56-4.24-1.56-.33,0-.66.03-.99.08-1.88.29-3.54,1.38-4.54,2.99l-53.4,85.37c-5.89,9.47-15.49,16.29-26.35,18.73-3.15.72-6.36,1.08-9.57,1.08Zm503.73-161.78c-2.13,0-4.13,1.04-5.36,2.79-8.19,11.75-17.38,22.94-27.32,33.27-2.08,2.16-2.42,5.45-.83,7.99l56.37,90.11c3.82,6.14,10.06,10.56,17.13,12.13,1.98.46,4.08.71,6.18.71,8.86,0,17.22-4.31,22.35-11.54,6.48-9.12,6.8-21.11.82-30.57l-63.81-101.84c-1.16-1.86-3.18-3.01-5.37-3.06-.05,0-.11,0-.16,0Zm-457.62-.03c-2.19.05-4.21,1.2-5.37,3.06l-63.85,101.9c-7.93,12.82-4.04,29.8,8.65,37.87,4.41,2.74,9.42,4.17,14.54,4.17,2.09,0,4.19-.24,6.23-.72,6.99-1.55,13.24-5.97,17.07-12.11l56.4-90.12c1.59-2.54,1.25-5.83-.83-7.99-9.93-10.32-19.13-21.52-27.32-33.27-1.22-1.75-3.22-2.79-5.36-2.79-.05,0-.11,0-.16,0Zm228.88-409.4c-141.88,0-257.3,115.43-257.3,257.3s115.43,257.3,257.3,257.3,257.3-115.43,257.3-257.3c-.16-141.72-115.59-257.14-257.29-257.3h0Zm183.93-236.81c-7.02,0-13.49,3.51-17.31,9.39l-52.48,83.78c-1.87,2.98-1.04,6.91,1.88,8.88,92.81,62.58,116.59,136.36,122.5,165.17.36,1.75,1.42,3.27,2.93,4.22,1.05.66,2.25,1,3.47,1,.54,0,1.08-.07,1.61-.2,49.81-12.67,92.74-43.34,120.88-86.34.15-.23.29-.47.41-.72,26.29-43.96,35.06-95.76,24.68-145.94-.36-1.75-1.42-3.27-2.93-4.21-1.05-.65-2.25-.99-3.46-.99-.54,0-1.08.07-1.61.2-10.8,2.75-28.46,6.02-51.23,6.02-45.76,0-92.69-12.7-139.49-37.75-2.98-1.63-6.4-2.51-9.85-2.51Zm-570,34.04c-1.22,0-2.42.34-3.47,1-1.51.95-2.57,2.47-2.93,4.22-10.33,50.32-1.49,102.31,24.9,146.38.04.08.09.15.14.22,28.14,43,71.07,73.67,120.88,86.34.53.13,1.07.2,1.61.2,1.22,0,2.42-.34,3.47-1,1.51-.95,2.57-2.47,2.93-4.22,5.91-28.81,29.68-102.58,122.5-165.17,2.92-1.97,3.75-5.9,1.88-8.88l-52.43-83.69c-3.86-5.97-10.33-9.49-17.36-9.49-3.46,0-6.89.88-9.92,2.56-46.73,25.02-93.67,37.73-139.44,37.73-22.72,0-40.36-3.26-51.16-6-.53-.13-1.07-.2-1.6-.2Zm281.3,79.89c-1.29,0-2.57.38-3.65,1.12-11.8,7.97-23.23,16.75-33.97,26.09-2.42,2.11-2.95,5.67-1.25,8.4l52.15,83.17c1.22,1.94,3.33,3.06,5.53,3.06.66,0,1.33-.1,1.99-.31,13.68-4.38,27.82-7.69,42.03-9.83,2.18-.33,4.04-1.73,4.96-3.73.92-2,.77-4.33-.4-6.19l-61.86-98.71c-.94-1.5-2.45-2.55-4.18-2.92-.45-.1-.9-.14-1.35-.14Zm209.53-.06c-.45,0-.91.05-1.36.14-1.73.37-3.24,1.42-4.18,2.92l-61.86,98.72c-1.17,1.87-1.32,4.19-.4,6.19.92,2,2.78,3.4,4.96,3.73,14.21,2.14,28.35,5.45,42.03,9.84.66.21,1.33.31,1.99.31,2.2,0,4.31-1.12,5.53-3.06l52.24-83.21c1.71-2.73,1.18-6.3-1.25-8.41-10.77-9.34-22.24-18.11-34.07-26.06-1.09-.73-2.36-1.11-3.64-1.11Z"/><path d="m1753.07,1314.32c-3.42,0-6.38-2.3-7.2-5.6-.83-3.3.69-6.72,3.69-8.33,43.95-22.65,72.13-67.51,73.46-117.04.05-1.94.9-3.8,2.33-5.11,1.33-1.23,3.07-1.9,4.88-1.9.14,0,.27,0,.41.01,2.08.09,3.91.93,5.25,2.39,1.34,1.46,2.03,3.35,1.95,5.32-1.61,54.69-32.73,104.21-81.23,129.34-1.14.61-2.32.91-3.52.91h-.01Z"/><path d="m1482.13,1806.18c-40.1,0-79.28-11.21-113.31-32.41-.1-.06-.21-.12-.31-.18-.18-.12-.41-.27-.7-.43-31.11-19.28-56.96-46.37-74.78-78.34-17.85-32.03-27.29-68.35-27.29-105.02s9.44-72.99,27.29-105.02c17.82-31.97,43.67-59.06,74.77-78.34.29-.16.53-.32.7-.43.1-.06.21-.12.31-.18,34.03-21.2,73.21-32.41,113.31-32.41s79.28,11.21,113.31,32.41c.15.1.31.18.47.27.12.08.24.16.35.23,31.19,19.29,57.12,46.42,74.97,78.46,17.85,32.03,27.29,68.35,27.29,105.02s-9.44,72.99-27.29,105.02c-17.82,31.97-43.67,59.06-74.78,78.34-.29.16-.52.31-.69.43-.11.06-.21.12-.31.18-34.03,21.2-73.21,32.41-113.31,32.41Zm0-112.37c4.08,0,7.4,3.32,7.4,7.4v82.88c0,1.81.75,3.54,2.08,4.78,1.21,1.13,2.81,1.76,4.45,1.76.15,0,.3,0,.45-.02,30.28-2.11,60.17-11.29,86.42-26.54,2.01-1.17,3.25-3.32,3.25-5.65v-126.86c0-4.08,3.32-7.4,7.4-7.4s7.4,3.32,7.4,7.4v107.39c0,2.54,1.47,4.84,3.77,5.92.88.41,1.83.61,2.76.61,1.51,0,3-.52,4.19-1.52,45.75-38.31,71.99-94.51,72-154.19,0-59.68-26.25-115.87-72-154.19-1.2-1-2.69-1.52-4.19-1.52-.94,0-1.88.2-2.76.61-2.3,1.07-3.77,3.38-3.77,5.92v135.25c0,4.08-3.32,7.4-7.4,7.4s-7.4-3.32-7.4-7.4v-154.73c0-2.33-1.24-4.48-3.25-5.65-26.25-15.25-56.13-24.43-86.42-26.54-.15-.01-.3-.02-.45-.02-1.65,0-3.24.62-4.45,1.75-1.32,1.24-2.08,2.96-2.08,4.78v82.88c0,4.08-3.32,7.4-7.4,7.4s-7.4-3.32-7.4-7.4v-82.88c0-1.81-.75-3.54-2.08-4.78-1.21-1.13-2.81-1.75-4.45-1.75-.15,0-.3,0-.46.02-30.28,2.11-60.17,11.29-86.42,26.54-2.01,1.17-3.25,3.32-3.25,5.65v126.86c0,4.08-3.32,7.4-7.4,7.4s-7.4-3.32-7.4-7.4v-107.39c0-2.54-1.47-4.84-3.77-5.92-.88-.41-1.82-.61-2.76-.61-1.51,0-2.99.52-4.19,1.52-45.76,38.31-72,94.51-72,154.19s26.24,115.88,72,154.19c1.2,1,2.69,1.52,4.19,1.52.94,0,1.88-.2,2.76-.61,2.3-1.07,3.77-3.38,3.77-5.92v-65.59c0-4.08,3.32-7.4,7.4-7.4s7.4,3.32,7.4,7.4v85.07c0,2.33,1.24,4.48,3.25,5.65,26.25,15.25,56.13,24.43,86.42,26.54.15.01.3.02.46.02,1.65,0,3.24-.62,4.45-1.76,1.33-1.23,2.08-2.96,2.08-4.78v-82.88c0-4.08,3.32-7.4,7.4-7.4Z"/><path d="m1370.67,1625.02c-4.08,0-7.4-3.32-7.4-7.4v-13.93c0-4.08,3.32-7.4,7.4-7.4s7.4,3.32,7.4,7.4v13.93c0,4.08-3.32,7.4-7.4,7.4Z"/><path d="m897.25,1943.8c-.87,0-1.72-.14-2.55-.42l-161.14-53.76c-1.18-.4-2.27-1.07-3.16-1.96l-36.22-36.22c-1.37-1.37-3.19-2.09-5.04-2.09-1.22,0-2.45.31-3.56.96-42.22,24.41-88.07,40.49-136.29,47.79-.52.08-.97.12-1.4.12-3.02,0-5.76-1.67-7.15-4.35-1.61-3.1-1.05-6.87,1.39-9.36,25.36-26.93,47.82-56.54,66.86-88.1,1.19-1.98,1.35-4.42.43-6.53-.93-2.12-2.83-3.65-5.09-4.12-28.5-5.85-57.7-8.81-86.8-8.81s-58.3,2.97-86.8,8.81c-2.26.46-4.16,2-5.09,4.12-.93,2.12-.77,4.55.43,6.53,19.04,31.56,41.5,61.17,66.77,88.02,2.54,2.6,3.1,6.36,1.48,9.46-1.39,2.68-4.13,4.35-7.15,4.35-.44,0-.88-.04-1.31-.11-195.23-32.03-247.13-162.62-249.24-168.16-.32-.85-.5-1.76-.52-2.69,2.86-48.14,20.09-93.64,49.83-131.61,21.14-26.46,25.9-62.27,12.36-93.39-1.05-2.4-3.33-4.04-5.94-4.25-6.65-.55-12.81-3.89-16.9-9.16-4.09-5.27-5.81-12.06-4.7-18.64,1.7-10.21,3.95-20.44,6.69-30.4.68-2.47-.02-5.11-1.83-6.92l-53.86-53.87c-1.39-1.39-3.21-2.09-5.03-2.09s-3.64.69-5.03,2.08l-25.58,25.56c-1.23,1.23-1.97,2.88-2.07,4.62-.76,12.92-6.2,25.1-15.33,34.27-10.01,9.79-23.33,15.22-37.43,15.22h0c-14.33,0-27.79-5.58-37.92-15.7-20.66-20.66-20.87-54.44-.49-75.35,9.08-8.79,21.03-14.02,33.65-14.73,1.75-.1,3.39-.84,4.63-2.07l47.64-47.64c2.78-2.78,2.78-7.29,0-10.07l-107.73-107.73c-1.09-1.09-2.5-1.79-4.03-2.01-29.82-4.27-53.18-27.1-58.13-56.82-4.95-29.72,9.75-58.89,36.58-72.59,9.65-4.93,20.47-7.53,31.28-7.53,18.55,0,35.94,7.26,48.97,20.45,10.32,10.4,17.12,24.11,19.15,38.62.21,1.53.92,2.95,2.01,4.04l107.68,107.77c1.33,1.34,3.15,2.09,5.03,2.09h0c1.89,0,3.7-.75,5.03-2.08l47.08-47.08c1.23-1.23,1.97-2.88,2.07-4.62.76-12.93,6.21-25.1,15.34-34.28,10.01-9.79,23.33-15.21,37.42-15.21s27.8,5.58,37.93,15.71c20.68,20.68,20.86,54.51.41,75.42-9.11,9.06-21.28,14.51-34.21,15.26-1.74.1-3.39.84-4.62,2.07l-25.56,25.58c-2.78,2.78-2.78,7.29,0,10.07l29.95,29.95c1.38,1.38,3.2,2.08,5.04,2.08,1.47,0,2.95-.45,4.21-1.38,40.29-29.56,87.99-45.71,137.95-46.69,101.69,0,222.8,79.2,246.68,225.97,1.11,6.62-.6,13.41-4.69,18.68-4.09,5.27-10.25,8.61-16.9,9.16-2.61.22-4.89,1.85-5.94,4.25-13.54,31.13-8.78,66.94,12.42,93.46,26.81,34.79,43.79,76.34,49.02,120.07.19,1.59.91,3.06,2.04,4.19l48.9,48.89c.88.88,1.56,1.98,1.96,3.17l53.76,161.13c.97,2.92.22,6.08-1.95,8.26-1.52,1.52-3.55,2.36-5.71,2.36Zm-100.33-201.41c-.31,0-.63.02-.95.06-2.2.3-4.14,1.6-5.24,3.53-19.69,34.49-47.23,64.85-79.63,87.81-1.71,1.21-2.8,3.12-2.98,5.21-.18,2.09.58,4.15,2.06,5.63l29.11,29.11c.78.78,1.73,1.37,2.78,1.72l128.9,43.01c.74.25,1.5.37,2.25.37,1.86,0,3.68-.73,5.04-2.09,1.91-1.91,2.57-4.73,1.72-7.29l-43.01-128.9c-.35-1.05-.94-2-1.72-2.78l-33.31-33.32c-1.34-1.34-3.16-2.09-5.04-2.09Zm-472.37-242.02c-2.12,0-4.14.94-5.5,2.59-1.5,1.82-2,4.27-1.33,6.53,9.7,33.05,2.66,68.85-18.81,95.77-26.65,34.31-42.73,75.24-46.55,118.42-.11,1.21.1,2.43.59,3.54,7.92,17.7,54.34,107.88,190.92,145.33.62.17,1.26.25,1.88.25,2.35,0,4.6-1.17,5.94-3.2,1.7-2.57,1.55-5.94-.37-8.35-26.59-33.47-60.38-83.61-70.34-132.45-8.7-49.18,1.39-99.39,28.43-141.39,1.37-2.13,1.51-4.83.36-7.08l-35.74-70.24c-1-1.97-2.86-3.36-5.03-3.77-13.18-2.48-27.5-4.42-43.79-5.93-.22-.02-.44-.03-.66-.03Zm386,0c-.23,0-.45.01-.68.03-16.44,1.58-30.75,3.51-43.75,5.92-2.18.4-4.04,1.8-5.05,3.77l-35.74,70.24c-1.15,2.26-1.01,4.95.36,7.08,27.05,42.03,37.14,92.27,28.41,141.48-9.92,48.82-43.7,98.9-70.28,132.3-1.92,2.41-2.07,5.79-.37,8.36,1.34,2.03,3.59,3.19,5.94,3.19.63,0,1.27-.08,1.89-.26,135.87-37.51,182.8-127.57,190.83-145.24.64-1.41.79-2.94.49-4.37-4.05-42.83-20.07-83.45-46.35-117.53-21.55-27.01-28.58-62.81-18.88-95.86.67-2.27.16-4.72-1.34-6.54-1.36-1.65-3.38-2.58-5.49-2.58Zm-193.06,260.51c33.07,0,66.19,3.7,98.45,10.99.53.12,1.05.18,1.57.18,2.71,0,5.25-1.55,6.44-4.09,6.36-13.51,11.19-27.75,14.37-42.34.03-.12.05-.25.07-.37,7.77-47.65-3.08-95.75-30.56-135.45-.06-.08-.12-.17-.18-.25-1.85-2.45-2.15-5.79-.76-8.53l27.59-54.22c1.32-2.59.93-5.72-.98-7.91-1.38-1.58-3.35-2.44-5.37-2.44-.78,0-1.57.13-2.33.39-8.08,2.8-15.85,6.53-23.1,11.08-23.84,13.08-41.01,35.75-47.12,62.25-.07.29-.12.59-.15.89-1.32,13.15,3.71,26.31,13.44,35.25,1.48,1.49,2.33,3.54,2.33,5.64,0,2.14-.85,4.23-2.36,5.74l-45.56,45.56c-1.52,1.52-3.55,2.36-5.7,2.36s-4.18-.84-5.7-2.36l-45.56-45.56c-1.51-1.51-2.37-3.6-2.36-5.74.01-2.1.86-4.15,2.34-5.64,9.73-8.93,14.75-22.1,13.44-35.25-.03-.3-.08-.6-.15-.89-6.11-26.5-23.28-49.18-47.11-62.25-7.25-4.55-15.02-8.28-23.1-11.08-.76-.26-1.55-.39-2.33-.39-2.02,0-3.99.86-5.37,2.44-1.91,2.19-2.3,5.32-.98,7.91l27.6,54.22c1.37,2.72,1.05,6.08-.82,8.52-.07.09-.14.19-.21.29-27.45,39.69-38.3,87.78-30.53,135.41.02.12.04.25.07.37,3.18,14.59,8.01,28.83,14.37,42.34,1.19,2.53,3.73,4.09,6.44,4.09.52,0,1.04-.06,1.56-.17.22-.05.44-.11.65-.18,32.01-7.18,64.87-10.81,97.68-10.81Zm-216.48-325.8c-3.14,0-5.93,2.07-6.83,5.11-3.14,10.65-5.66,21.6-7.5,32.55-.33,1.98.19,4.01,1.43,5.59,1.25,1.58,3.1,2.56,5.11,2.69,26.79,1.81,108.31,7.33,148.32,33.59,31.79,20.84,51.54,48.13,54.18,74.86,1.43,13.23-1.84,26.54-9.21,37.55-1.89,2.82-1.52,6.59.88,8.99l25.09,25.09c1.39,1.39,3.21,2.09,5.03,2.09s3.64-.7,5.03-2.09l25.09-25.09c2.4-2.4,2.77-6.17.88-8.99-7.36-11.01-10.63-24.32-9.21-37.49,2.65-26.79,22.4-54.08,54.19-74.92,37.24-24.43,108.29-30.86,147.33-32.51,2.03-.09,3.93-1.04,5.22-2.61,1.29-1.58,1.84-3.63,1.51-5.64-1.82-11.29-4.37-22.59-7.56-33.59-.89-3.05-3.68-5.14-6.83-5.14-.12,0-.24,0-.35,0-42.32,2.08-120.18,10.09-166.17,40.27-15.75,9.92-30.28,21.92-43.1,35.59-1.61,1.79-3.78,2.76-6.05,2.76-2.23,0-4.4-.96-5.92-2.62-12.99-13.72-27.57-25.73-43.42-35.78-46.04-30.26-124.28-38.21-166.81-40.25-.12,0-.23,0-.34,0Zm216.6-174.73c-7.37,0-14.82.48-22.13,1.44-3.19.42-5.7,2.92-6.13,6.11-3.83,28.35-16.85,125.27-23.75,182.12-.34,2.84,1.04,5.61,3.52,7.03,2.82,1.62,5.55,3.21,8.05,4.85,12.6,8.13,24.54,17.35,35.55,27.45,1.36,1.25,3.09,1.87,4.81,1.87s3.46-.63,4.82-1.88c10.99-10.12,22.94-19.35,35.5-27.44,2.61-1.71,5.37-3.31,8.22-4.94,2.48-1.42,3.87-4.2,3.53-7.04-5.72-47.07-16.33-127.19-23.7-181.68-.27-3.28-2.8-6.01-6.16-6.45-7.31-.96-14.75-1.44-22.13-1.44Zm-52.75,7.47c-.67,0-1.34.09-1.99.29-71.73,20.93-129.31,72.51-157.98,141.51-.89,2.15-.68,4.6.57,6.56,1.25,1.96,3.38,3.19,5.7,3.29,44.36,1.88,88.14,10.16,130.11,24.63.75.26,1.54.39,2.32.39,1.32,0,2.62-.36,3.77-1.08,1.82-1.14,3.03-3.03,3.3-5.16,7.05-56.71,18.05-138.6,21.25-162.34.32-2.39-.59-4.78-2.41-6.35-1.31-1.13-2.96-1.72-4.64-1.72Zm105.29,0c-1.68,0-3.34.6-4.64,1.72-1.83,1.57-2.74,3.96-2.41,6.35,6.22,45.74,15.52,116.17,21.25,162.28.27,2.13,1.48,4.03,3.3,5.16,1.14.71,2.45,1.08,3.77,1.08.78,0,1.56-.13,2.32-.39,41.74-14.37,85.26-22.63,129.36-24.54,2.31-.1,4.44-1.32,5.69-3.28,1.25-1.95,1.47-4.39.59-6.54-28.31-69.03-85.61-120.63-157.22-141.57-.66-.19-1.33-.29-2-.29Zm-439.38,100.23c-15.21,0-28.8,9.08-34.62,23.14-6.83,16.47-1.02,35.62,13.8,45.53,6.19,4.14,13.39,6.32,20.83,6.32,10.02,0,19.44-3.9,26.52-10.98,7.08-7.08,10.98-16.5,10.99-26.51,0-17.83-12.68-33.3-30.17-36.78-2.42-.48-4.88-.73-7.34-.73Zm193.31-98.48c-1.82,0-3.64.69-5.03,2.08l-85.9,85.9c-1.34,1.34-2.08,3.15-2.08,5.03s.75,3.7,2.08,5.03l43.25,43.25c1.35,1.35,3.17,2.08,5.03,2.08.48,0,.96-.05,1.44-.15,2.35-.48,4.29-2.12,5.18-4.34,14.91-37.52,38.61-71.68,68.53-98.79,1.44-1.31,2.29-3.15,2.34-5.1.05-1.95-.7-3.83-2.08-5.21l-27.72-27.72c-1.39-1.39-3.21-2.08-5.03-2.08Zm-155.39,98.09c3.13,3.22,5.84,6.84,8.06,10.74,1.1,1.93,3.04,3.24,5.24,3.53.32.04.64.06.95.06,1.88,0,3.69-.74,5.03-2.08l153.4-153.4c1.57-1.57,2.32-3.78,2.02-5.99-.3-2.2-1.6-4.14-3.53-5.24-3.9-2.22-7.52-4.93-10.74-8.06-3.13-3.24-5.86-6.86-8.1-10.77-1.1-1.92-3.04-3.23-5.24-3.52-.31-.04-.63-.06-.94-.06-1.87,0-3.69.74-5.03,2.08l-108.66,108.66c-.09.08-.18.17-.27.26l-44.59,44.59c-1.59,1.59-2.33,3.84-2.01,6.06.32,2.22,1.68,4.16,3.65,5.23,3.93,2.13,7.55,4.78,10.76,7.89Zm-20.99-231.53c-.49,0-.99.05-1.48.16-2.36.5-4.3,2.16-5.17,4.41-6.86,17.85-21.02,32.02-38.87,38.87-2.25.86-3.91,2.81-4.41,5.17s.23,4.81,1.93,6.51l90.47,90.47c1.39,1.39,3.21,2.08,5.03,2.08s3.64-.7,5.03-2.08l42.97-42.97c2.78-2.78,2.78-7.29,0-10.07l-90.47-90.47c-1.35-1.35-3.17-2.08-5.03-2.08Zm219.34-4.34c-10.01,0-19.43,3.9-26.51,10.98-7.09,7.08-10.99,16.5-10.99,26.52s3.9,19.44,10.99,26.52c7.26,6.94,16.63,10.69,26.51,10.69s19.25-3.76,26.39-10.58c14.74-14.73,14.74-38.52.12-53.14-7.08-7.08-16.5-10.99-26.52-10.99Zm-289.98-68.88c-14.07,0-27.29,5.48-37.24,15.42-9.83,9.79-15.48,23.37-15.48,37.26s5.65,27.48,15.49,37.27c9.94,9.93,23.16,15.41,37.23,15.41s27.3-5.48,37.26-15.43c20.54-20.54,20.54-53.96,0-74.5-9.95-9.95-23.18-15.43-37.26-15.43Z"/><path d="m625.48,931.49c-20.55,0-39.35-11.23-49.08-29.32-14.18-26.37-5.12-59,20.65-74.27,1.55-.92,2.71-2.37,3.26-4.08l1.8-5.55c.6-1.87.44-3.89-.45-5.64-.89-1.75-2.44-3.07-4.31-3.67l-129.79-41.97c-.74-.24-1.51-.36-2.27-.36s-1.53.12-2.27.36l-130.06,42.04c-3.88,1.25-6.01,5.41-4.76,9.29l1.77,5.5c.55,1.73,1.73,3.19,3.29,4.11,25.25,14.85,34.53,46.88,21.11,72.93-9.55,18.78-28.54,30.43-49.59,30.43-8.2,0-16.15-1.78-23.63-5.31-27.35-12.87-39.34-44.68-27.3-72.41.72-1.65.81-3.51.25-5.22l-11.51-35.54c-1.01-3.13-3.91-5.12-7.03-5.12-.75,0-1.52.12-2.28.36l-125.57,40.6c-1.71.55-3.17,1.71-4.08,3.26-9.98,16.83-28.35,27.29-47.94,27.29-9.13,0-18.23-2.3-26.32-6.65-26.37-14.18-36.79-46.39-23.73-73.33,9.25-19.07,28.93-31.39,50.13-31.39,7.64,0,15.09,1.56,22.15,4.62.94.41,1.94.61,2.94.61.77,0,1.54-.12,2.28-.36l125.57-40.68c3.88-1.26,6.01-5.43,4.75-9.31l-11.53-35.59c-.53-1.63-1.6-3.02-3.04-3.95-2.12-1.36-4.17-2.89-6.09-4.53-.75-.64-1.62-1.13-2.55-1.43l-63.62-20.5c-35.28-11.53-65.86-33.24-88.41-62.76C15.66,564.45,2.78,529.23.94,492.13l-.68-14.49c-.13-2.76,1.09-5.4,3.28-7.08,1.45-1.11,3.26-1.72,5.09-1.72.88,0,1.74.14,2.58.41l451.75,146.02c.74.24,1.51.36,2.27.36s1.53-.12,2.27-.36l451.59-146c.84-.27,1.71-.41,2.58-.41,1.82,0,3.63.61,5.07,1.71,2.19,1.66,3.42,4.29,3.3,7.03l-.63,14.51c-1.86,37.06-14.77,72.29-37.32,101.82-22.56,29.53-53.15,51.25-88.46,62.81l-63.24,20.49c-.9.29-1.73.75-2.45,1.36-2.04,1.7-4.21,3.27-6.46,4.67-1.48.92-2.59,2.34-3.13,4l-11.49,35.56c-1.26,3.88.87,8.05,4.76,9.31l125.57,40.6c.74.24,1.51.36,2.27.36,1.01,0,2.01-.21,2.95-.61,7.06-3.07,14.52-4.63,22.16-4.63,21.2,0,40.87,12.32,50.12,31.38,13.07,26.94,2.66,59.15-23.72,73.34-8.09,4.35-17.2,6.65-26.33,6.65-19.59,0-37.95-10.45-47.94-27.28-.92-1.55-2.37-2.71-4.08-3.26l-125.57-40.6c-.76-.25-1.52-.36-2.28-.36-3.12,0-6.02,1.99-7.03,5.12l-11.51,35.55c-.55,1.71-.46,3.57.25,5.22,11.94,27.46.19,59.22-26.75,72.29-7.65,3.71-15.82,5.6-24.26,5.6Zm77.73-335.08c-11.87,0-22.93,5.31-30.36,14.56-10.05,12.51-11.34,30.22-3.22,44.06,1.17,2.01,1.43,4.48.7,6.74l-56.07,173.44c-.73,2.19-2.38,4.02-4.53,4.98-14.66,6.46-23.97,21.57-23.16,37.6.82,16.03,11.63,30.11,26.9,35.05,3.88,1.26,7.91,1.89,11.98,1.89,11.86,0,22.92-5.3,30.35-14.55,10.05-12.51,11.35-30.21,3.24-44.06-1.17-2.02-1.43-4.49-.7-6.75l18.32-56.68,9.71-29.95,27.99-86.7c.73-2.26,2.39-4.11,4.55-5.08.12-.05.24-.11.35-.17,14.48-6.56,23.64-21.56,22.83-37.46-.83-16.02-11.64-30.1-26.91-35.04-3.87-1.25-7.9-1.89-11.96-1.89Zm-472.34,94.45c-1.93,0-3.82.76-5.23,2.17-1.96,1.96-2.66,4.86-1.81,7.5l25.43,78.66,22.72,70.15c.73,2.25.47,4.72-.71,6.77-5.06,9.25-6.18,19.74-3.26,29.69,2.92,9.95,9.54,18.17,18.64,23.14,5.7,3.11,12.12,4.76,18.58,4.76,14.22,0,27.29-7.75,34.1-20.22.16-.29.3-.58.41-.89,4.39-8.95,5.13-19.46,2-28.94-3.42-10.53-11.24-19.11-21.43-23.51-2.04-.93-3.69-2.78-4.41-5.03l-41-127.15c-.73-2.26-2.5-4.03-4.76-4.76l-37.01-11.97c-.75-.24-1.51-.36-2.27-.36Zm-175.22,93.69c-3.99.04-7.94.69-11.73,1.96-20.36,6.59-31.6,28.57-25,49,5.21,16.12,20.1,26.96,37.03,26.96,4.06,0,8.09-.64,11.98-1.9,10.51-3.41,19.05-11.18,23.43-21.32.93-2.08,2.78-3.74,5.04-4.46l131.7-42.57c1.87-.6,3.42-1.92,4.31-3.67s1.05-3.78.45-5.64l-3.67-11.32-6.05-18.74c-.6-1.87-1.92-3.42-3.67-4.31-1.05-.54-2.21-.81-3.37-.81-.76,0-1.53.12-2.27.36l-131.7,42.57c-.84.27-1.71.41-2.58.41-1.47,0-2.92-.39-4.2-1.13-5.9-3.47-12.69-5.34-19.59-5.38h-.1Zm658.61-36.8c-1.16,0-2.32.27-3.37.81-1.75.89-3.07,2.45-3.67,4.31l-1.89,5.88-7.8,24.11c-.6,1.87-.44,3.89.45,5.64.89,1.74,2.44,3.06,4.31,3.67l131.7,42.57c2.19.73,4.02,2.38,4.98,4.53,4.36,10.06,12.89,17.83,23.39,21.24,3.89,1.26,7.91,1.89,11.98,1.89,9.67,0,18.94-3.57,26.11-10.05,10.29-9.3,14.88-23.49,11.97-37.05-2.91-13.56-12.91-24.63-26.1-28.89-3.83-1.23-7.79-1.85-11.8-1.85-6.92,0-13.73,1.87-19.68,5.4-1.26.74-2.73,1.14-4.22,1.14h0c-.86,0-1.72-.13-2.54-.4l-131.54-42.61c-.74-.24-1.51-.36-2.28-.36Zm-409.36-32.99c-1.93,0-3.82.76-5.22,2.16-1.96,1.96-2.66,4.86-1.81,7.5l20.62,63.97c.6,1.87,1.92,3.42,3.67,4.31,1.05.54,2.21.81,3.37.81.77,0,1.54-.12,2.28-.36l88.49-28.68c3.05-.99,5.11-3.83,5.11-7.03,0-3.2-2.07-6.04-5.12-7.03l-109.11-35.29c-.75-.24-1.51-.36-2.27-.36ZM25.66,491.91c-1.67,0-3.31.57-4.65,1.64-1.94,1.57-2.96,4.02-2.7,6.5,6.67,65.14,51.2,120.38,113.44,140.73l470.73,152.22c.75.25,1.52.36,2.28.36,3.12,0,6.02-1.99,7.03-5.12l29.12-90c.6-1.87.44-3.89-.45-5.64-.89-1.75-2.44-3.07-4.31-3.67L27.94,492.27c-.75-.24-1.51-.36-2.27-.36Zm879.03.06c-.76,0-1.53.12-2.27.36l-388.23,125.51c-3.05.99-5.12,3.83-5.12,7.03s2.06,6.05,5.11,7.03l127.1,41.15c.76.25,1.52.36,2.28.36,3.12,0,6.02-1.99,7.03-5.12l1.8-5.55c.56-1.72.46-3.59-.26-5.25-9.46-21.56-4.28-46.87,12.9-62.98,10.36-9.72,23.89-15.07,38.1-15.07,8.86,0,17.7,2.15,25.58,6.23,20.91,10.82,32.79,33.77,29.56,57.09-.35,2.52.62,5.05,2.58,6.68,1.35,1.13,3.03,1.72,4.74,1.72.77,0,1.54-.12,2.29-.36l30.64-9.97c62.22-20.38,106.79-75.62,113.54-140.73.26-2.49-.76-4.93-2.7-6.51-1.33-1.08-2.98-1.65-4.65-1.65Z"/><path d="m465.23,566.87c-.89,0-1.77-.14-2.62-.41l-312.01-100.9c-.13-.04-.27-.08-.4-.12-2.73-1.01-4.75-3.39-5.31-6.27-.57-2.97.5-6.01,2.8-7.96,18.93-14.67,39.09-28.12,59.91-39.96,51.24-30.67,44.28-68.38,35.48-116.12-.01-.06-.02-.13-.04-.19-4.59-21.66-7.19-43.87-7.72-66,0-126.16,102.78-228.94,229.12-228.94s229.07,102.73,229.12,229.02c-.56,22.1-3.18,44.26-7.78,65.88-.01.07-.03.13-.04.2-9.14,49.57-15.74,85.39,35.3,116.01,21.16,12.01,41.48,25.58,60.55,40.4,2.29,1.96,3.36,4.99,2.79,7.96-.58,3-2.74,5.44-5.64,6.38l-310.94,100.61c-.82.26-1.68.4-2.55.4h-.01Zm-205.59-274.65c9.17,49.76,17.77,96.73-43.16,133.28-15.24,9.21-24.77,15.14-32.92,20.48-2.38,1.56-3.65,4.35-3.27,7.17.38,2.82,2.34,5.17,5.05,6.05l277.61,89.76c.74.24,1.51.36,2.27.36s1.54-.12,2.28-.36l276.46-89.46c2.7-.87,4.66-3.22,5.05-6.03.39-2.81-.87-5.6-3.24-7.16-9.22-6.11-20.1-12.75-33.36-20.8-60.96-36.57-52.34-83.55-43.18-133.29,4.44-20.64,6.98-41.8,7.57-62.89,0-.07,0-.14,0-.2,0-117.1-95.27-212.36-212.36-212.36s-212.36,95.27-212.36,212.36c0,.07,0,.14,0,.2.58,21.1,3.13,42.26,7.57,62.89Z"/><path d="m464.43,442.46c-45.65,0-134.51-30.78-134.51-87.21,0-87.8,54.05-181.81,134.51-181.81s134.51,94.01,134.51,181.81c0,56.43-88.86,87.21-134.51,87.21Zm0-252.27c-76.84,0-117.76,95.86-117.76,165.06,0,18.46,15.35,36.54,43.22,50.93,23.35,12.05,51.91,19.53,74.54,19.53s51.19-7.48,74.54-19.53c27.87-14.38,43.22-32.47,43.22-50.93,0-69.2-40.92-165.06-117.76-165.06Z"/><path d="m432.88,347.87c-1.3,0-2.55-.3-3.73-.89l-31.53-15.76c-2.01-1-3.5-2.72-4.21-4.85-.71-2.12-.55-4.4.45-6.4,1.43-2.86,4.31-4.64,7.51-4.64,1.3,0,2.55.3,3.73.89l31.53,15.77c2.01,1,3.5,2.72,4.21,4.85.71,2.12.55,4.4-.45,6.4-1.43,2.86-4.31,4.64-7.51,4.64h0Z"/><path d="m495.98,347.87c-3.2,0-6.08-1.78-7.51-4.64-1-2-1.16-4.28-.45-6.4.71-2.12,2.2-3.84,4.21-4.84l31.54-15.77c1.17-.59,2.43-.89,3.73-.89,3.2,0,6.08,1.78,7.51,4.64,1,2,1.16,4.28.45,6.4-.71,2.12-2.2,3.84-4.21,4.84l-31.54,15.77c-1.17.59-2.43.89-3.73.89h0Z"/><path d="m1833.91,820.84c-2.18,0-4.25-.84-5.82-2.35l-94.58-94.58c-3.06-3.18-3.02-8.45.19-11.66,1.58-1.59,3.69-2.46,5.93-2.46s4.25.84,5.82,2.35l94.58,94.58c3.06,3.18,3.02,8.45-.19,11.66-1.58,1.59-3.69,2.46-5.93,2.46h0Z"/><path d="m1944.55,931.49c-.79,0-1.57-.11-2.31-.33l-244.6-71.01c-1.46-.42-2.77-1.23-3.79-2.33l-201.46-217.12c-1.4-1.51-3.36-2.37-5.42-2.37s-4.02.86-5.42,2.37l-201.45,217.1c-1.03,1.12-2.34,1.92-3.79,2.34l-244.59,71.01c-.76.22-1.54.33-2.33.33-2.24,0-4.34-.87-5.93-2.45-2.16-2.16-2.97-5.33-2.12-8.26l71-244.57c.42-1.46,1.23-2.77,2.34-3.79l224.04-207.95c2.99-2.78,3.17-7.46.39-10.45l-31.73-34.19c-1.5-1.62-2.29-3.73-2.23-5.94,0-.27,0-.54-.02-.81-2.11-26.2-12.8-51.53-30.09-71.33-1.35-1.54-3.27-2.46-5.32-2.53-.08,0-.17,0-.25,0-1.96,0-3.84.78-5.23,2.17l-32.13,32.14c-4.56,4.57-10.63,7.08-17.09,7.08s-12.52-2.51-17.09-7.08l-32.87-32.91c-9.42-9.42-9.42-24.75,0-34.17l17.35-17.38c2.88-2.89,2.88-7.57,0-10.46l-11.16-11.16c-14.15-14.23-15.47-36.88-3.06-52.67,2.32-2.95,2.06-7.16-.59-9.81l-61.25-61.13c-1.42-1.42-3.31-2.16-5.23-2.16-1.09,0-2.18.24-3.2.73-5.43,2.61-11.23,3.93-17.22,3.93-12.94,0-25.12-6.31-32.57-16.88-11.25-15.96-9.34-37.51,4.55-51.25l66.98-66.93c7.55-7.22,17.63-11.26,28.24-11.26h0c10.61,0,20.68,4.04,28.36,11.37,11.88,11.76,14.98,29.91,7.62,45.07-1.38,2.83-.81,6.22,1.42,8.45l60.72,60.84c1.39,1.39,3.27,2.17,5.24,2.17h0c1.97,0,3.85-.78,5.24-2.18l4.06-4.07c7.53-7.54,17.57-11.69,28.24-11.69s20.7,4.16,28.24,11.7l11.16,11.16c1.44,1.44,3.34,2.17,5.23,2.17s3.79-.72,5.23-2.17l9.25-9.25c4.56-4.56,10.63-7.07,17.08-7.07s12.52,2.51,17.08,7.08l32.92,32.87c4.56,4.56,7.08,10.63,7.08,17.09s-2.51,12.53-7.08,17.09l-32.12,31.89c-1.45,1.44-2.24,3.42-2.18,5.47.06,2.05.97,3.98,2.5,5.33,19.74,17.41,45.06,28.14,71.3,30.23.19.02.39.02.59.02.06,0,.4,0,.4,0,2.15,0,4.2.8,5.79,2.25l40.71,37.84c1.42,1.32,3.23,1.98,5.04,1.98s3.61-.66,5.03-1.97l40.65-37.66c1.55-1.5,3.44-2.26,5.43-2.26.13,0,.65.02.77.02.22,0,.44,0,.66-.03,26.46-2.37,51.07-12.8,71.17-30.17,1.55-1.34,2.48-3.27,2.56-5.33.08-2.05-.71-4.05-2.16-5.5l-32.09-32.09c-4.57-4.56-7.08-10.63-7.08-17.09s2.51-12.52,7.08-17.09l32.91-32.87c4.57-4.56,10.63-7.08,17.08-7.08s12.52,2.51,17.08,7.08l9.25,9.24c1.39,1.39,3.27,2.17,5.23,2.17h0c1.96,0,3.84-.78,5.23-2.17l11.16-11.15c7.55-7.55,17.58-11.7,28.25-11.7s20.7,4.16,28.24,11.7l4.05,4.06c1.39,1.39,3.27,2.18,5.24,2.18h0c1.96,0,3.85-.78,5.24-2.17l60.72-60.88c2.22-2.23,2.79-5.62,1.42-8.45-7.35-15.16-4.25-33.31,7.72-45.17,7.58-7.23,17.65-11.27,28.26-11.27s20.68,4.04,28.36,11.36l66.81,66.84c13.77,13.75,15.62,35.26,4.42,51.16-7.46,10.58-19.64,16.89-32.59,16.89h0c-5.94,0-11.68-1.3-17.07-3.86-1.01-.48-2.1-.71-3.17-.71-1.92,0-3.81.75-5.23,2.16l-61.24,61.13c-2.65,2.65-2.91,6.86-.59,9.8,12.4,15.8,11.08,38.45-3.09,52.69l-11.14,11.14c-1.39,1.39-2.17,3.27-2.17,5.23s.78,3.84,2.17,5.23l17.36,17.36c9.42,9.42,9.42,24.74,0,34.16l-32.87,32.92c-4.56,4.56-10.63,7.08-17.09,7.08s-12.52-2.51-17.09-7.08l-32.01-32.12c-1.39-1.39-3.28-2.18-5.24-2.18-.07,0-.15,0-.22,0-2.04.06-3.97.96-5.32,2.49-17.46,19.73-28.2,45.05-30.24,71.31-.02.27-.03.55-.02.82.08,2.21-.71,4.31-2.22,5.93l-31.77,34.25c-2.78,2.99-2.6,7.67.39,10.45l224.06,207.92c1.12,1.03,1.92,2.34,2.34,3.79l71.01,244.59c.73,2.52.23,5.27-1.35,7.37-1.57,2.1-4.08,3.35-6.7,3.35Zm-646.94-640.44c-1.89,0-3.79.72-5.23,2.17l-25.74,25.74c-2.76,2.76-2.9,7.18-.33,10.11,19.69,22.45,31.98,49.99,35.55,79.64.19,1.55.86,3,1.92,4.15l399.37,430.36c.91.98,2.07,1.7,3.36,2.07l212.83,61.79c.68.2,1.37.29,2.06.29,1.93,0,3.82-.76,5.23-2.17,1.91-1.91,2.62-4.7,1.87-7.29l-61.84-212.8c-.37-1.29-1.09-2.45-2.07-3.36l-430.36-399.37c-1.14-1.06-2.6-1.73-4.15-1.92-29.65-3.57-57.19-15.87-79.64-35.55-1.4-1.23-3.14-1.83-4.88-1.83-1.9,0-3.79.73-5.23,2.17l-25.69,25.7c-2.89,2.89-2.89,7.57,0,10.46l367.69,367.62c3.06,3.17,3.02,8.45-.19,11.66-1.58,1.58-3.69,2.45-5.93,2.45s-4.25-.84-5.82-2.35l-367.56-367.56c-1.44-1.44-3.34-2.17-5.23-2.17Zm37.6,183.68c-1.8,0-3.61.65-5.03,1.97l-220.91,204.99c-.98.91-1.7,2.07-2.07,3.36l-61.79,212.84c-.75,2.59-.03,5.38,1.87,7.29,1.41,1.41,3.3,2.17,5.23,2.17.69,0,1.38-.1,2.06-.29l212.83-61.79c1.29-.37,2.45-1.09,3.36-2.07l200.16-215.64c2.63-2.84,2.63-7.23,0-10.06l-54.47-58.7c-1.37-1.47-3.27-2.33-5.28-2.36-.05,0-.09,0-.14,0-1.96,0-3.84.78-5.23,2.17l-102.19,102.19c-1.66,1.72-3.86,2.65-6.12,2.65-.71,0-1.43-.09-2.12-.27-2.93-.77-5.22-3.06-5.99-5.99-.77-2.93.11-6.05,2.28-8.15l103.11-103.11c2.81-2.81,2.9-7.35.19-10.26l-54.34-58.56c-1.46-1.57-3.44-2.37-5.42-2.37Zm341.1-183.68c-1.89,0-3.79.72-5.23,2.17l-91.03,91.06c-1.42,1.42-2.2,3.36-2.16,5.37.04,2.01.89,3.92,2.36,5.28l51.8,48.08c1.37,1.27,3.17,1.98,5.03,1.98.09,0,.18,0,.28,0,1.96-.07,3.81-.92,5.15-2.36l27.61-29.78c1.06-1.14,1.74-2.6,1.92-4.15,3.56-29.66,15.84-57.21,35.54-79.68,2.57-2.93,2.42-7.35-.33-10.11l-25.7-25.69c-1.44-1.44-3.34-2.17-5.23-2.17Zm-48.02-48.02c-1.74,0-3.48.61-4.88,1.84-22.45,19.69-49.99,31.99-79.64,35.57-1.55.19-3.01.86-4.15,1.93l-34.48,32.08c-1.51,1.4-2.36,3.36-2.36,5.42,0,2.06.86,4.02,2.37,5.42l51.94,48.21c1.42,1.32,3.23,1.97,5.03,1.97,1.9,0,3.79-.73,5.23-2.17l91.9-91.9c1.39-1.39,2.17-3.27,2.17-5.23s-.78-3.84-2.17-5.23l-25.74-25.74c-1.44-1.44-3.33-2.17-5.23-2.17Zm.68-109.74c-1.96,0-3.84.78-5.23,2.17l-32.87,32.92c-2.89,2.89-2.88,7.57,0,10.46l182.8,182.77c1.44,1.44,3.34,2.17,5.23,2.17s3.78-.72,5.23-2.17l32.88-32.87c1.39-1.39,2.17-3.27,2.17-5.23s-.78-3.84-2.17-5.23l-182.82-182.82c-1.39-1.39-3.27-2.17-5.23-2.17h0Zm-284.02,0c-1.96,0-3.84.78-5.23,2.17l-182.82,182.82c-1.39,1.39-2.17,3.27-2.17,5.23s.78,3.84,2.17,5.23l32.88,32.87c1.44,1.44,3.34,2.17,5.23,2.17s3.78-.72,5.23-2.17l182.82-182.77c2.89-2.89,2.89-7.57,0-10.46l-32.88-32.92c-1.39-1.39-3.27-2.17-5.23-2.17h0Zm360.21-6.54c-6.2,0-12.02,2.41-16.4,6.8l-11.15,11.15c-1.39,1.39-2.17,3.27-2.17,5.23s.78,3.84,2.17,5.23l111.58,111.57c1.39,1.39,3.27,2.17,5.23,2.17s3.84-.78,5.23-2.17l11.15-11.16c9.03-9.04,9.03-23.74,0-32.77l-89.24-89.26c-4.38-4.38-10.2-6.8-16.4-6.8Zm-436.4,0c-6.19,0-12.02,2.41-16.4,6.8l-89.24,89.26c-9.03,9.04-9.03,23.74,0,32.77l11.16,11.16c1.44,1.44,3.34,2.17,5.23,2.17s3.79-.72,5.23-2.17l111.57-111.57c1.39-1.39,2.17-3.27,2.17-5.23s-.78-3.84-2.17-5.23l-11.16-11.16c-4.38-4.38-10.2-6.79-16.39-6.79Zm-118.52-50.09c-1.96,0-3.84.78-5.23,2.17l-44.73,44.73c-1.39,1.39-2.17,3.27-2.17,5.23,0,1.96.78,3.85,2.17,5.23l58.79,58.67c1.44,1.44,3.33,2.16,5.22,2.16s3.79-.72,5.23-2.17l44.61-44.61c2.89-2.89,2.89-7.57,0-10.45l-58.67-58.79c-1.39-1.39-3.27-2.17-5.23-2.17h0Zm673.45,0c-1.96,0-3.85.78-5.23,2.17l-58.67,58.79c-2.88,2.89-2.88,7.57,0,10.45l44.61,44.61c1.44,1.44,3.34,2.17,5.23,2.17s3.78-.72,5.22-2.16l58.79-58.67c1.39-1.39,2.17-3.27,2.17-5.23,0-1.96-.78-3.85-2.17-5.23l-44.73-44.73c-1.39-1.39-3.27-2.17-5.23-2.17h0Zm-695.99-60.17c-6.05,0-11.77,2.32-16.11,6.52l-67.04,67.04c-9.02,9.03-9.02,23.72,0,32.75,4.52,4.33,10.3,6.66,16.4,6.66s11.86-2.32,16.26-6.53l67.08-67.08c8.81-9.14,8.68-23.71-.21-32.58-4.38-4.37-10.19-6.78-16.38-6.78Zm718.16-.38c-1.98,0-3.95.25-5.87.76-8.09,2.12-14.43,8.46-16.55,16.55-2.12,8.09.3,16.73,6.32,22.54l66.87,66.86c4.53,4.32,10.3,6.62,16.38,6.62s11.84-2.31,16.24-6.49c4.51-4.51,6.92-10.32,6.92-16.51s-2.41-12.01-6.79-16.39l-66.95-66.95c-4.25-4.41-10.33-6.98-16.58-6.98Z"/><path d="m1139.62,821.23c-.71,0-1.43-.09-2.12-.27-2.93-.77-5.22-3.06-5.99-5.99-.77-2.93.11-6.05,2.29-8.15l94.77-94.77c1.48-1.43,3.55-2.26,5.73-2.26s4.35.87,5.93,2.46c3.21,3.21,3.26,8.48.1,11.75l-94.58,94.58c-1.66,1.72-3.86,2.65-6.12,2.65h0Z"/></svg>